<svg xmlns="http://www.w3.org/2000/svg" viewBox="0 0 560 130" width="100%" height="100%">
  <defs>
    <style type="text/css">
      .accent { fill: #fbbd1a; }
      .tongue { fill: #e66d71; }
      .white { fill: #ffffff; }
      .mouth-dark { fill: #12141c; }
      .bg-stroke { stroke: #0f1118; }
    </style>
  </defs>

  <g transform="translate(10, 8) scale(0.85)">
    <path d="M 40 15 H 85 A 20 20 0 0 1 105 35 V 55 A 20 20 0 0 1 85 75 H 45 L 20 85 V 35 A 20 20 0 0 1 40 15 Z" class="white" />
    <path d="M 42 38 C 42 35, 45 34, 47 34 L 78 34 C 80 34, 83 35, 83 38 C 83 58, 42 58, 42 38 Z" class="mouth-dark" />
    <path d="M 52 48 Q 62.5 39, 73 48 A 12 12 0 0 1 52 48 Z" class="tongue" />
    <circle cx="115" cy="25" r="5" class="white" />
    <circle cx="130" cy="25" r="5" class="white" />

    <path d="M 85 55 H 130 A 20 20 0 0 1 150 75 V 125 L 125 115 H 85 A 20 20 0 0 1 65 95 V 75 A 20 20 0 0 1 85 55 Z" class="accent bg-stroke" stroke-width="7" stroke-linejoin="round" />
    <path d="M 87 78 C 87 75, 90 74, 92 74 L 123 74 C 125 74, 128 75, 128 78 C 128 98, 87 98, 87 78 Z" class="mouth-dark" />
    <path d="M 97 88 Q 107.5 79, 118 88 A 12 12 0 0 1 97 88 Z" class="tongue" />
    <circle cx="45" cy="105" r="5" class="accent" />
    <circle cx="60" cy="105" r="5" class="accent" />
  </g>

  <text x="165" y="82" font-family="'Segoe UI', Roboto, Helvetica, Arial, sans-serif" font-weight="800" font-size="54" letter-spacing="-1.2">
    <tspan class="white">Hippi</tspan><tspan class="accent">Chat</tspan>
  </text>
</svg>
